<svg xmlns="http://www.w3.org/2000/svg" width="49" height="53" viewBox="0 0 49 53">
    <path fill="#594cc3" fill-rule="nonzero" d="M32.828 7.232a7.233 7.233 0 0 1-7.227 7.227 7.231 7.231 0 0 1-7.229-7.227A7.233 7.233 0 0 1 25.602 0c3.99 0 7.226 3.24 7.226 7.232zm-7.222 37.144a4.03 4.03 0 0 0-4.035 4.02 4.023 4.023 0 0 0 4.016 4.04 4.022 4.022 0 0 0 4.038-4.017 4.028 4.028 0 0 0-4.02-4.043zm23.212-16.558a2.63 2.63 0 0 0-2.63-2.63 2.63 2.63 0 0 0-2.636 2.63 2.635 2.635 0 0 0 2.636 2.634 2.635 2.635 0 0 0 2.63-2.634zm-39.207 0a4.6 4.6 0 1 0-9.2-.001 4.6 4.6 0 0 0 9.2.001zm32.01-16.028a2.066 2.066 0 0 0-2.925 0 2.08 2.08 0 0 0 0 2.937 2.063 2.063 0 0 0 2.926 0 2.082 2.082 0 0 0 0-2.937zM14.386 39.044A4.746 4.746 0 0 0 7.7 39.04a4.708 4.708 0 0 0 0 6.669 4.73 4.73 0 0 0 6.682 0 4.7 4.7 0 0 0 .003-6.666zm27.7 5.253a2.724 2.724 0 0 0-.003-3.84 2.7 2.7 0 0 0-3.824.006 2.725 2.725 0 0 0 0 3.84 2.702 2.702 0 0 0 3.827-.006zm-27.581-27.58a4.894 4.894 0 0 0 0-6.912 4.88 4.88 0 0 0-6.902 0 4.893 4.893 0 0 0 .002 6.911 4.87 4.87 0 0 0 6.9 0z"/>
</svg>
